# Blender v3.4.1 OBJ File: 'SS_KO.blend'
# www.blender.org
mtllib r2.mtl
o r2
v 1.654750 0.640018 3.157290
v 3.593398 0.640018 1.180630
v -2.197447 0.640018 1.180629
v 1.804868 0.640018 -2.821686
v 1.804868 0.640019 -5.703709
v -7.056131 0.640018 3.157290
v 1.721919 -0.531325 3.317248
v 3.974329 -0.531325 1.020672
v -1.811275 -0.531324 1.020671
v 1.964826 -0.531324 -2.755429
v 1.964826 -0.531324 -6.089881
v -7.442303 -0.531324 3.317247
v 1.721919 0.640018 3.317248
v 3.974329 0.640018 1.020672
v -1.811275 0.640018 1.020672
v 1.964826 0.640018 -2.755429
v 1.964826 0.640019 -6.089881
v -7.442303 0.640018 3.317247
v 1.662543 0.451287 3.163634
v 3.601191 0.451288 1.186973
v -2.189654 0.451288 1.186972
v 1.812660 0.451288 -2.815343
v 1.812660 0.451289 -5.697367
v -7.048339 0.451288 3.163633
vt 0.521957 0.455890
vt 0.600953 0.409964
vt 0.499276 0.511642
vt 0.499276 0.411687
vt 0.521957 0.389441
vt 0.567883 0.409964
vt 0.567883 0.409964
vt 0.521957 0.455890
vt 0.605384 0.408129
vt 0.567122 0.408129
vt 0.523793 0.451459
vt 0.567122 0.408129
vt 0.605384 0.408129
vt 0.497440 0.410916
vt 0.497440 0.516073
vt 0.497440 0.410916
vt 0.497440 0.516073
vt 0.523793 0.385070
vt 0.523793 0.385070
vt 0.523793 0.451459
vt 0.521957 0.389441
vt 0.600953 0.409964
vt 0.499276 0.511642
vt 0.499276 0.411687
vn 0.0000 1.0000 0.0000
vn -0.7061 -0.0529 -0.7061
vn -0.0000 -1.0000 -0.0000
vn 1.0000 0.0000 0.0000
vn -0.0000 -0.0000 1.0000
vn -0.7071 0.0000 -0.7071
vn 0.7139 -0.0000 0.7002
vn 0.0000 0.0000 -1.0000
vn 0.7071 0.0000 0.7071
vn -0.9991 -0.0413 -0.0000
vn 0.0000 -0.0336 -0.9994
vn 0.7061 0.0529 0.7061
vn -0.7129 -0.0529 -0.6992
vn -0.0000 0.0336 0.9994
usemtl blue
s off
f 21/1/1 23/2/1 24/3/1
f 24/3/1 19/4/1 21/1/1
f 19/4/1 20/5/1 21/1/1
f 21/1/1 22/6/1 23/2/1
usemtl white-100
f 4/7/2 21/1/2 3/8/2
f 11/9/3 10/10/3 9/11/3
f 16/12/4 11/9/4 17/13/4
f 13/14/5 12/15/5 7/16/5
f 17/13/6 12/15/6 18/17/6
f 14/18/7 7/16/7 8/19/7
f 14/18/8 9/11/8 15/20/8
f 15/20/9 10/10/9 16/12/9
f 2/21/1 13/14/1 14/18/1
f 2/21/1 15/20/1 3/8/1
f 4/7/1 15/20/1 16/12/1
f 5/22/1 16/12/1 17/13/1
f 6/23/1 13/14/1 1/24/1
f 6/23/1 17/13/1 18/17/1
f 4/7/10 23/2/10 22/6/10
f 1/24/11 24/3/11 6/23/11
f 5/22/12 24/3/12 23/2/12
f 2/21/13 19/4/13 1/24/13
f 2/21/14 21/1/14 20/5/14
f 4/7/2 22/6/2 21/1/2
f 8/19/3 7/16/3 9/11/3
f 7/16/3 12/15/3 9/11/3
f 12/15/3 11/9/3 9/11/3
f 16/12/4 10/10/4 11/9/4
f 13/14/5 18/17/5 12/15/5
f 17/13/6 11/9/6 12/15/6
f 14/18/7 13/14/7 7/16/7
f 14/18/8 8/19/8 9/11/8
f 15/20/9 9/11/9 10/10/9
f 2/21/1 1/24/1 13/14/1
f 2/21/1 14/18/1 15/20/1
f 4/7/1 3/8/1 15/20/1
f 5/22/1 4/7/1 16/12/1
f 6/23/1 18/17/1 13/14/1
f 6/23/1 5/22/1 17/13/1
f 4/7/10 5/22/10 23/2/10
f 1/24/11 19/4/11 24/3/11
f 5/22/12 6/23/12 24/3/12
f 2/21/13 20/5/13 19/4/13
f 2/21/14 3/8/14 21/1/14
