# Blender v3.3.0 OBJ File: 'KR_Circle.blend'
# www.blender.org
mtllib KR_Circle.mtl
o kr_circle
v 0.000000 -0.030040 -0.261991
v 0.000000 0.049479 -0.245999
v 0.051112 -0.030040 -0.256957
v 0.047992 0.049479 -0.241272
v 0.100259 -0.030040 -0.242048
v 0.094140 0.049479 -0.227273
v 0.145554 -0.030040 -0.217837
v 0.136670 0.049479 -0.204541
v 0.185255 -0.030040 -0.185255
v 0.173947 0.049479 -0.173947
v 0.217837 -0.030040 -0.145554
v 0.204541 0.049479 -0.136670
v 0.242048 -0.030040 -0.100259
v 0.227273 0.049479 -0.094140
v 0.256957 -0.030040 -0.051112
v 0.241272 0.049479 -0.047992
v 0.261991 -0.030040 0.000000
v 0.245999 0.049479 0.000000
v 0.256957 -0.030040 0.051112
v 0.241272 0.049479 0.047992
v 0.242048 -0.030040 0.100259
v 0.227273 0.049479 0.094140
v 0.217837 -0.030040 0.145554
v 0.204541 0.049479 0.136670
v 0.185255 -0.030040 0.185255
v 0.173947 0.049479 0.173947
v 0.145554 -0.030040 0.217837
v 0.136670 0.049479 0.204541
v 0.100259 -0.030040 0.242048
v 0.094140 0.049479 0.227273
v 0.051112 -0.030040 0.256957
v 0.047992 0.049479 0.241272
v 0.000000 -0.030040 0.261991
v 0.000000 0.049479 0.245999
v -0.051112 -0.030040 0.256957
v -0.047992 0.049479 0.241272
v -0.100259 -0.030040 0.242048
v -0.094140 0.049479 0.227273
v -0.145554 -0.030040 0.217837
v -0.136670 0.049479 0.204541
v -0.185255 -0.030040 0.185255
v -0.173947 0.049479 0.173947
v -0.217837 -0.030040 0.145554
v -0.204541 0.049479 0.136670
v -0.242048 -0.030040 0.100259
v -0.227273 0.049479 0.094140
v -0.256957 -0.030040 0.051112
v -0.241272 0.049479 0.047992
v -0.261991 -0.030040 0.000000
v -0.245999 0.049479 0.000000
v -0.256957 -0.030040 -0.051112
v -0.241272 0.049479 -0.047992
v -0.242048 -0.030040 -0.100259
v -0.227273 0.049479 -0.094140
v -0.217837 -0.030040 -0.145554
v -0.204541 0.049479 -0.136670
v -0.185255 -0.030040 -0.185255
v -0.173947 0.049479 -0.173947
v -0.145554 -0.030040 -0.217837
v -0.136670 0.049479 -0.204541
v -0.100259 -0.030040 -0.242048
v -0.094140 0.049479 -0.227273
v -0.051112 -0.030040 -0.256957
v -0.047992 0.049479 -0.241272
v 0.051112 0.049479 -0.256957
v 0.000000 0.049479 -0.261991
v 0.100259 0.049479 -0.242048
v 0.145554 0.049479 -0.217837
v 0.185255 0.049479 -0.185255
v 0.217837 0.049479 -0.145554
v 0.242048 0.049479 -0.100259
v 0.256957 0.049479 -0.051112
v 0.261991 0.049479 0.000000
v 0.256957 0.049479 0.051112
v 0.242048 0.049479 0.100259
v 0.217837 0.049479 0.145554
v 0.185255 0.049479 0.185255
v 0.145554 0.049479 0.217837
v 0.100259 0.049479 0.242048
v 0.051112 0.049479 0.256957
v 0.000000 0.049479 0.261991
v -0.051112 0.049479 0.256957
v -0.100259 0.049479 0.242048
v -0.145554 0.049479 0.217837
v -0.185255 0.049479 0.185255
v -0.217837 0.049479 0.145554
v -0.242048 0.049479 0.100259
v -0.256957 0.049479 0.051112
v -0.261991 0.049479 0.000000
v -0.256957 0.049479 -0.051112
v -0.242048 0.049479 -0.100259
v -0.217837 0.049479 -0.145554
v -0.185255 0.049479 -0.185255
v -0.145554 0.049479 -0.217837
v -0.100259 0.049479 -0.242048
v -0.051112 0.049479 -0.256957
v 0.047992 -0.003807 -0.241272
v 0.000000 -0.003807 -0.245999
v 0.094140 -0.003807 -0.227273
v 0.136670 -0.003807 -0.204541
v 0.173947 -0.003807 -0.173947
v 0.204541 -0.003807 -0.136670
v 0.227273 -0.003807 -0.094140
v 0.241272 -0.003807 -0.047992
v 0.245999 -0.003807 0.000000
v 0.241272 -0.003807 0.047992
v 0.227273 -0.003807 0.094140
v 0.204541 -0.003807 0.136670
v 0.173947 -0.003807 0.173947
v 0.136670 -0.003807 0.204541
v 0.094140 -0.003807 0.227273
v 0.047992 -0.003807 0.241272
v 0.000000 -0.003807 0.245999
v -0.047992 -0.003807 0.241272
v -0.094140 -0.003807 0.227273
v -0.136670 -0.003807 0.204541
v -0.173947 -0.003807 0.173947
v -0.204541 -0.003807 0.136670
v -0.227273 -0.003807 0.094140
v -0.241272 -0.003807 0.047992
v -0.245999 -0.003807 0.000000
v -0.241272 -0.003807 -0.047992
v -0.227273 -0.003807 -0.094140
v -0.204541 -0.003807 -0.136670
v -0.173947 -0.003807 -0.173947
v -0.136670 -0.003807 -0.204541
v -0.094140 -0.003807 -0.227273
v -0.047992 -0.003807 -0.241272
vn 0.0000 1.0000 -0.0000
vn 0.0000 0.0000 -1.0000
vn 0.1951 0.0000 -0.9808
vn 0.3827 0.0000 -0.9239
vn 0.5556 0.0000 -0.8315
vn 0.7071 0.0000 -0.7071
vn 0.8315 0.0000 -0.5556
vn 0.9239 0.0000 -0.3827
vn 0.9808 0.0000 -0.1951
vn 1.0000 0.0000 0.0000
vn 0.9808 0.0000 0.1951
vn 0.9239 0.0000 0.3827
vn 0.8315 0.0000 0.5556
vn 0.7071 0.0000 0.7071
vn 0.5556 0.0000 0.8315
vn 0.3827 0.0000 0.9239
vn 0.1951 0.0000 0.9808
vn 0.0000 0.0000 1.0000
vn -0.1951 0.0000 0.9808
vn -0.3827 0.0000 0.9239
vn -0.5556 0.0000 0.8315
vn -0.7071 0.0000 0.7071
vn -0.8315 0.0000 0.5556
vn -0.9239 0.0000 0.3827
vn -0.9808 0.0000 0.1951
vn -1.0000 0.0000 0.0000
vn -0.9808 0.0000 -0.1951
vn -0.9239 0.0000 -0.3827
vn -0.8315 0.0000 -0.5556
vn -0.7071 0.0000 -0.7071
vn -0.5556 0.0000 -0.8315
vn -0.3827 0.0000 -0.9239
vn -0.1951 0.0000 -0.9808
vn 0.0000 -1.0000 0.0000
g kr_circle_kr_circle_blue-500
usemtl blue-500
s 1
f 103//1 99//1 115//1
f 99//1 97//1 98//1
f 98//1 128//1 127//1
f 127//1 126//1 125//1
f 125//1 124//1 123//1
f 123//1 122//1 121//1
f 121//1 120//1 123//1
f 120//1 119//1 123//1
f 119//1 118//1 117//1
f 117//1 116//1 115//1
f 115//1 114//1 113//1
f 113//1 112//1 111//1
f 111//1 110//1 109//1
f 109//1 108//1 107//1
f 107//1 106//1 105//1
f 105//1 104//1 107//1
f 104//1 103//1 107//1
f 103//1 102//1 101//1
f 101//1 100//1 99//1
f 99//1 98//1 123//1
f 98//1 127//1 123//1
f 127//1 125//1 123//1
f 119//1 117//1 115//1
f 115//1 113//1 107//1
f 113//1 111//1 107//1
f 111//1 109//1 107//1
f 103//1 101//1 99//1
f 123//1 119//1 99//1
f 119//1 115//1 99//1
f 107//1 103//1 115//1
g kr_circle_kr_circle_blue-900
usemtl blue-900
f 66//2 3//3 1//2
f 65//3 5//4 3//3
f 67//4 7//5 5//4
f 68//5 9//6 7//5
f 69//6 11//7 9//6
f 70//7 13//8 11//7
f 71//8 15//9 13//8
f 72//9 17//10 15//9
f 73//10 19//11 17//10
f 74//11 21//12 19//11
f 75//12 23//13 21//12
f 76//13 25//14 23//13
f 77//14 27//15 25//14
f 78//15 29//16 27//15
f 79//16 31//17 29//16
f 80//17 33//18 31//17
f 81//18 35//19 33//18
f 82//19 37//20 35//19
f 83//20 39//21 37//20
f 84//21 41//22 39//21
f 85//22 43//23 41//22
f 86//23 45//24 43//23
f 87//24 47//25 45//24
f 88//25 49//26 47//25
f 89//26 51//27 49//26
f 90//27 53//28 51//27
f 91//28 55//29 53//28
f 92//29 57//30 55//29
f 93//30 59//31 57//30
f 94//31 61//32 59//31
f 46//8 120//9 48//9
f 95//32 63//33 61//32
f 96//33 1//2 63//33
f 55//34 63//34 31//34
f 2//1 65//1 66//1
f 6//1 65//1 4//1
f 8//1 67//1 6//1
f 10//1 68//1 8//1
f 12//1 69//1 10//1
f 12//1 71//1 70//1
f 14//1 72//1 71//1
f 18//1 72//1 16//1
f 18//1 74//1 73//1
f 22//1 74//1 20//1
f 24//1 75//1 22//1
f 26//1 76//1 24//1
f 28//1 77//1 26//1
f 28//1 79//1 78//1
f 30//1 80//1 79//1
f 34//1 80//1 32//1
f 34//1 82//1 81//1
f 38//1 82//1 36//1
f 40//1 83//1 38//1
f 42//1 84//1 40//1
f 44//1 85//1 42//1
f 44//1 87//1 86//1
f 46//1 88//1 87//1
f 50//1 88//1 48//1
f 50//1 90//1 89//1
f 54//1 90//1 52//1
f 56//1 91//1 54//1
f 58//1 92//1 56//1
f 60//1 93//1 58//1
f 60//1 95//1 94//1
f 62//1 96//1 95//1
f 2//1 96//1 64//1
f 20//27 107//28 22//28
f 48//9 121//10 50//10
f 22//28 108//29 24//29
f 50//10 122//11 52//11
f 24//29 109//30 26//30
f 52//11 123//12 54//12
f 26//30 110//31 28//31
f 54//12 124//13 56//13
f 28//31 111//32 30//32
f 2//18 97//19 4//19
f 56//13 125//14 58//14
f 30//32 112//33 32//33
f 4//19 99//20 6//20
f 58//14 126//15 60//15
f 32//33 113//2 34//2
f 6//20 100//21 8//21
f 60//15 127//16 62//16
f 34//2 114//3 36//3
f 8//21 101//22 10//22
f 62//16 128//17 64//17
f 36//3 115//4 38//4
f 10//22 102//23 12//23
f 64//17 98//18 2//18
f 38//4 116//5 40//5
f 12//23 103//24 14//24
f 40//5 117//6 42//6
f 14//24 104//25 16//25
f 42//6 118//7 44//7
f 16//25 105//26 18//26
f 44//7 119//8 46//8
f 18//26 106//27 20//27
f 66//2 65//3 3//3
f 65//3 67//4 5//4
f 67//4 68//5 7//5
f 68//5 69//6 9//6
f 69//6 70//7 11//7
f 70//7 71//8 13//8
f 71//8 72//9 15//9
f 72//9 73//10 17//10
f 73//10 74//11 19//11
f 74//11 75//12 21//12
f 75//12 76//13 23//13
f 76//13 77//14 25//14
f 77//14 78//15 27//15
f 78//15 79//16 29//16
f 79//16 80//17 31//17
f 80//17 81//18 33//18
f 81//18 82//19 35//19
f 82//19 83//20 37//20
f 83//20 84//21 39//21
f 84//21 85//22 41//22
f 85//22 86//23 43//23
f 86//23 87//24 45//24
f 87//24 88//25 47//25
f 88//25 89//26 49//26
f 89//26 90//27 51//27
f 90//27 91//28 53//28
f 91//28 92//29 55//29
f 92//29 93//30 57//30
f 93//30 94//31 59//31
f 94//31 95//32 61//32
f 46//8 119//8 120//9
f 95//32 96//33 63//33
f 96//33 66//2 1//2
f 63//34 1//34 3//34
f 3//34 5//34 7//34
f 7//34 9//34 15//34
f 9//34 11//34 15//34
f 11//34 13//34 15//34
f 15//34 17//34 19//34
f 19//34 21//34 23//34
f 23//34 25//34 31//34
f 25//34 27//34 31//34
f 27//34 29//34 31//34
f 31//34 33//34 35//34
f 35//34 37//34 39//34
f 39//34 41//34 47//34
f 41//34 43//34 47//34
f 43//34 45//34 47//34
f 47//34 49//34 51//34
f 51//34 53//34 55//34
f 55//34 57//34 63//34
f 57//34 59//34 63//34
f 59//34 61//34 63//34
f 63//34 3//34 7//34
f 15//34 19//34 31//34
f 19//34 23//34 31//34
f 31//34 35//34 47//34
f 35//34 39//34 47//34
f 47//34 51//34 55//34
f 63//34 7//34 31//34
f 7//34 15//34 31//34
f 47//34 55//34 31//34
f 2//1 4//1 65//1
f 6//1 67//1 65//1
f 8//1 68//1 67//1
f 10//1 69//1 68//1
f 12//1 70//1 69//1
f 12//1 14//1 71//1
f 14//1 16//1 72//1
f 18//1 73//1 72//1
f 18//1 20//1 74//1
f 22//1 75//1 74//1
f 24//1 76//1 75//1
f 26//1 77//1 76//1
f 28//1 78//1 77//1
f 28//1 30//1 79//1
f 30//1 32//1 80//1
f 34//1 81//1 80//1
f 34//1 36//1 82//1
f 38//1 83//1 82//1
f 40//1 84//1 83//1
f 42//1 85//1 84//1
f 44//1 86//1 85//1
f 44//1 46//1 87//1
f 46//1 48//1 88//1
f 50//1 89//1 88//1
f 50//1 52//1 90//1
f 54//1 91//1 90//1
f 56//1 92//1 91//1
f 58//1 93//1 92//1
f 60//1 94//1 93//1
f 60//1 62//1 95//1
f 62//1 64//1 96//1
f 2//1 66//1 96//1
f 20//27 106//27 107//28
f 48//9 120//9 121//10
f 22//28 107//28 108//29
f 50//10 121//10 122//11
f 24//29 108//29 109//30
f 52//11 122//11 123//12
f 26//30 109//30 110//31
f 54//12 123//12 124//13
f 28//31 110//31 111//32
f 2//18 98//18 97//19
f 56//13 124//13 125//14
f 30//32 111//32 112//33
f 4//19 97//19 99//20
f 58//14 125//14 126//15
f 32//33 112//33 113//2
f 6//20 99//20 100//21
f 60//15 126//15 127//16
f 34//2 113//2 114//3
f 8//21 100//21 101//22
f 62//16 127//16 128//17
f 36//3 114//3 115//4
f 10//22 101//22 102//23
f 64//17 128//17 98//18
f 38//4 115//4 116//5
f 12//23 102//23 103//24
f 40//5 116//5 117//6
f 14//24 103//24 104//25
f 42//6 117//6 118//7
f 16//25 104//25 105//26
f 44//7 118//7 119//8
f 18//26 105//26 106//27
o kr_text
v -0.152039 0.009736 -0.150019
v -0.042039 0.009736 -0.135385
v 0.017961 0.009736 -0.135385
v -0.152039 0.009736 0.034615
v -0.112039 0.009736 -0.065385
v -0.112039 0.009736 -0.115385
v -0.124435 0.009736 0.017440
v -0.124435 0.009736 0.152977
v -0.086989 0.009736 0.190424
v -0.086989 0.009736 0.057946
v 0.029963 0.009736 0.174898
v 0.029963 0.009736 0.071386
v -0.096347 0.009736 -0.011412
v 0.094643 0.009736 0.136067
v -0.019381 0.009736 0.065553
v -0.019381 0.009736 0.125554
v -0.038550 0.009736 -0.069938
v -0.008732 0.009736 0.136203
v 0.151298 0.009736 0.136067
v -0.008732 0.009736 -0.023933
v -0.001742 0.009736 -0.106747
v 0.165876 0.009736 -0.106747
v 0.044598 0.009736 0.014531
v 0.017790 0.009736 -0.012278
v 0.075223 0.009736 -0.069711
v -0.112039 0.037281 -0.065385
v -0.112039 0.037281 -0.115385
v -0.042039 0.037281 -0.135385
v 0.017961 0.037281 -0.135385
v -0.152039 0.037281 0.034615
v -0.152039 0.037281 -0.150019
v -0.124435 0.037281 0.017440
v -0.124435 0.037281 0.152977
v -0.086989 0.037281 0.190424
v -0.086989 0.037281 0.057946
v -0.008732 0.037281 0.136203
v 0.029963 0.037281 0.174898
v 0.029963 0.037281 0.071386
v 0.094643 0.037281 0.136067
v -0.019381 0.037281 0.065553
v -0.096347 0.037281 -0.011412
v -0.019381 0.037281 0.125554
v -0.038550 0.037281 -0.069938
v -0.001742 0.037281 -0.106747
v 0.151298 0.037281 0.136067
v -0.008732 0.037281 -0.023933
v 0.165876 0.037281 -0.106747
v 0.044598 0.037281 0.014531
v 0.017790 0.037281 -0.012278
v 0.075223 0.037281 -0.069711
vn 0.0000 -1.0000 0.0000
vn 0.0000 1.0000 0.0000
vn 0.7070 0.0000 -0.7072
vn -1.0000 0.0000 -0.0000
vn 0.0000 0.0000 -1.0000
vn 0.7071 0.0000 0.7071
vn -0.7071 0.0000 0.7071
vn 1.0000 0.0000 0.0000
vn -0.7071 0.0000 -0.7071
vn -0.0020 0.0000 1.0000
vn 0.0000 0.0000 1.0000
vn 0.7071 0.0000 -0.7071
vn -0.7165 0.0000 -0.6976
vn 0.6546 0.0000 -0.7560
g kr_text_kr_text_white
usemtl white
s off
f 151//35 152//35 153//35
f 140//35 146//35 148//35
f 178//36 176//36 175//36
f 166//36 173//36 174//36
f 148//37 173//37 147//37
f 146//38 174//38 148//38
f 149//39 175//39 150//39
f 150//40 176//40 151//40
f 151//41 177//41 152//41
f 140//42 165//42 139//42
f 152//43 178//43 153//43
f 145//43 172//43 149//43
f 139//41 164//41 146//41
f 153//44 171//44 145//44
f 147//45 167//45 142//45
f 142//41 166//41 140//41
f 145//35 149//35 153//35
f 149//35 150//35 153//35
f 150//35 151//35 153//35
f 140//35 139//35 146//35
f 148//35 147//35 140//35
f 147//35 142//35 140//35
f 175//36 172//36 178//36
f 172//36 171//36 178//36
f 178//36 177//36 176//36
f 164//36 165//36 166//36
f 166//36 167//36 173//36
f 174//36 164//36 166//36
f 148//37 174//37 173//37
f 146//38 164//38 174//38
f 149//39 172//39 175//39
f 150//40 175//40 176//40
f 151//41 176//41 177//41
f 140//42 166//42 165//42
f 152//43 177//43 178//43
f 145//43 171//43 172//43
f 139//41 165//41 164//41
f 153//44 178//44 171//44
f 147//45 173//45 167//45
f 142//41 167//41 166//41
g kr_text_kr_text_red
usemtl red
f 143//35 144//35 138//35
f 133//35 131//35 132//35
f 169//36 160//36 163//36
f 154//36 159//36 158//36
f 141//46 168//46 143//46
f 132//38 159//38 129//38
f 135//47 169//47 141//47
f 129//48 155//48 134//48
f 144//41 163//41 138//41
f 136//38 160//38 135//38
f 143//42 170//42 144//42
f 137//41 161//41 136//41
f 134//42 154//42 133//42
f 138//42 162//42 137//42
f 133//43 156//43 130//43
f 130//39 157//39 131//39
f 131//40 158//40 132//40
f 137//35 136//35 138//35
f 136//35 135//35 138//35
f 135//35 141//35 138//35
f 141//35 143//35 138//35
f 133//35 130//35 131//35
f 132//35 129//35 133//35
f 129//35 134//35 133//35
f 160//36 161//36 163//36
f 161//36 162//36 163//36
f 163//36 170//36 168//36
f 168//36 169//36 163//36
f 154//36 155//36 159//36
f 158//36 157//36 154//36
f 157//36 156//36 154//36
f 141//46 169//46 168//46
f 132//38 158//38 159//38
f 135//47 160//47 169//47
f 129//48 159//48 155//48
f 144//41 170//41 163//41
f 136//38 161//38 160//38
f 143//42 168//42 170//42
f 137//41 162//41 161//41
f 134//42 155//42 154//42
f 138//42 163//42 162//42
f 133//43 154//43 156//43
f 130//39 156//39 157//39
f 131//40 157//40 158//40
